<svg xmlns="http://www.w3.org/2000/svg" width="450" height="200" viewBox="0 0 450 200">
<rect width="100%" height="100%" fill="#0d1117" rx="8"/>
<text x="75" y="160" text-anchor="middle" fill="#c9d1d9" font-family="monospace" font-size="12" font-weight="bold">Mochi</text><text x="75" y="175" text-anchor="middle" fill="#8b949e" font-family="monospace" font-size="10">Lv.1</text><g transform="translate(20,20)"><rect x="30" y="10" width="10" height="10" fill="rgb(255,180,200)"/><rect x="40" y="10" width="10" height="10" fill="rgb(250,245,255)"/><rect x="50" y="10" width="10" height="10" fill="rgb(250,245,255)"/><rect x="60" y="10" width="10" height="10" fill="rgb(250,245,255)"/><rect x="70" y="10" width="10" height="10" fill="rgb(255,180,200)"/><rect x="20" y="20" width="10" height="10" fill="rgb(255,180,200)"/><rect x="30" y="20" width="10" height="10" fill="rgb(250,245,255)"/><rect x="40" y="20" width="10" height="10" fill="rgb(250,245,255)"/><rect x="50" y="20" width="10" height="10" fill="rgb(250,245,255)"/><rect x="60" y="20" width="10" height="10" fill="rgb(250,245,255)"/><rect x="70" y="20" width="10" height="10" fill="rgb(250,245,255)"/><rect x="80" y="20" width="10" height="10" fill="rgb(255,180,200)"/><rect x="10" y="30" width="10" height="10" fill="rgb(255,180,200)"/><rect x="20" y="30" width="10" height="10" fill="rgb(250,245,255)"/><rect x="30" y="30" width="10" height="10" fill="rgb(250,245,255)"/><rect x="40" y="30" width="10" height="10" fill="rgb(250,245,255)"/><rect x="50" y="30" width="10" height="10" fill="rgb(250,245,255)"/><rect x="60" y="30" width="10" height="10" fill="rgb(250,245,255)"/><rect x="70" y="30" width="10" height="10" fill="rgb(250,245,255)"/><rect x="80" y="30" width="10" height="10" fill="rgb(250,245,255)"/><rect x="90" y="30" width="10" height="10" fill="rgb(255,180,200)"/><rect x="10" y="40" width="10" height="10" fill="rgb(255,180,200)"/><rect x="20" y="40" width="10" height="10" fill="rgb(250,245,255)"/><rect x="30" y="40" width="10" height="10" fill="rgb(250,245,255)"/><rect x="40" y="40" width="10" height="10" fill="rgb(250,245,255)"/><rect x="50" y="40" width="10" height="10" fill="rgb(235,225,245)"/><rect x="60" y="40" width="10" height="10" fill="rgb(250,245,255)"/><rect x="70" y="40" width="10" height="10" fill="rgb(250,245,255)"/><rect x="80" y="40" width="10" height="10" fill="rgb(250,245,255)"/><rect x="90" y="40" width="10" height="10" fill="rgb(255,180,200)"/><rect x="10" y="50" width="10" height="10" fill="rgb(255,180,200)"/><rect x="20" y="50" width="10" height="10" fill="rgb(250,245,255)"/><rect x="30" y="50" width="10" height="10" fill="rgb(250,245,255)"/><rect x="40" y="50" width="10" height="10" fill="rgb(40,40,60)"/><rect x="50" y="50" width="10" height="10" fill="rgb(235,225,245)"/><rect x="60" y="50" width="10" height="10" fill="rgb(40,40,60)"/><rect x="70" y="50" width="10" height="10" fill="rgb(250,245,255)"/><rect x="80" y="50" width="10" height="10" fill="rgb(250,245,255)"/><rect x="90" y="50" width="10" height="10" fill="rgb(255,180,200)"/><rect x="10" y="60" width="10" height="10" fill="rgb(255,140,160)"/><rect x="20" y="60" width="10" height="10" fill="rgb(255,180,200)"/><rect x="30" y="60" width="10" height="10" fill="rgb(235,225,245)"/><rect x="40" y="60" width="10" height="10" fill="rgb(235,225,245)"/><rect x="50" y="60" width="10" height="10" fill="rgb(235,225,245)"/><rect x="60" y="60" width="10" height="10" fill="rgb(235,225,245)"/><rect x="70" y="60" width="10" height="10" fill="rgb(235,225,245)"/><rect x="80" y="60" width="10" height="10" fill="rgb(255,180,200)"/><rect x="90" y="60" width="10" height="10" fill="rgb(255,140,160)"/><rect x="10" y="70" width="10" height="10" fill="rgb(255,180,200)"/><rect x="20" y="70" width="10" height="10" fill="rgb(255,180,200)"/><rect x="30" y="70" width="10" height="10" fill="rgb(235,225,245)"/><rect x="40" y="70" width="10" height="10" fill="rgb(235,225,245)"/><rect x="50" y="70" width="10" height="10" fill="rgb(240,150,175)"/><rect x="60" y="70" width="10" height="10" fill="rgb(235,225,245)"/><rect x="70" y="70" width="10" height="10" fill="rgb(235,225,245)"/><rect x="80" y="70" width="10" height="10" fill="rgb(255,180,200)"/><rect x="90" y="70" width="10" height="10" fill="rgb(255,180,200)"/><rect x="20" y="80" width="10" height="10" fill="rgb(255,180,200)"/><rect x="30" y="80" width="10" height="10" fill="rgb(255,180,200)"/><rect x="40" y="80" width="10" height="10" fill="rgb(255,180,200)"/><rect x="50" y="80" width="10" height="10" fill="rgb(255,180,200)"/><rect x="60" y="80" width="10" height="10" fill="rgb(255,180,200)"/><rect x="70" y="80" width="10" height="10" fill="rgb(255,180,200)"/><rect x="80" y="80" width="10" height="10" fill="rgb(255,180,200)"/><rect x="30" y="90" width="10" height="10" fill="rgb(255,180,200)"/><rect x="40" y="90" width="10" height="10" fill="rgb(255,180,200)"/><rect x="50" y="90" width="10" height="10" fill="rgb(255,180,200)"/><rect x="60" y="90" width="10" height="10" fill="rgb(255,180,200)"/><rect x="70" y="90" width="10" height="10" fill="rgb(255,180,200)"/><rect x="40" y="100" width="10" height="10" fill="rgb(240,150,175)"/><rect x="60" y="100" width="10" height="10" fill="rgb(240,150,175)"/></g><text x="150" y="84" text-anchor="middle" fill="#8b949e" font-family="monospace" font-size="18">→</text><text x="225" y="160" text-anchor="middle" fill="#c9d1d9" font-family="monospace" font-size="12" font-weight="bold">Puff</text><text x="225" y="175" text-anchor="middle" fill="#8b949e" font-family="monospace" font-size="10">Lv.5</text><g transform="translate(170,20)"><rect x="10" y="0" width="10" height="10" fill="rgb(255,180,200)"/><rect x="90" y="0" width="10" height="10" fill="rgb(255,180,200)"/><rect x="10" y="10" width="10" height="10" fill="rgb(255,180,200)"/><rect x="20" y="10" width="10" height="10" fill="rgb(250,245,255)"/><rect x="80" y="10" width="10" height="10" fill="rgb(250,245,255)"/><rect x="90" y="10" width="10" height="10" fill="rgb(255,180,200)"/><rect x="10" y="20" width="10" height="10" fill="rgb(255,180,200)"/><rect x="20" y="20" width="10" height="10" fill="rgb(255,180,200)"/><rect x="30" y="20" width="10" height="10" fill="rgb(250,245,255)"/><rect x="40" y="20" width="10" height="10" fill="rgb(250,245,255)"/><rect x="50" y="20" width="10" height="10" fill="rgb(250,245,255)"/><rect x="60" y="20" width="10" height="10" fill="rgb(250,245,255)"/><rect x="70" y="20" width="10" height="10" fill="rgb(250,245,255)"/><rect x="80" y="20" width="10" height="10" fill="rgb(255,180,200)"/><rect x="90" y="20" width="10" height="10" fill="rgb(255,180,200)"/><rect x="10" y="30" width="10" height="10" fill="rgb(255,180,200)"/><rect x="20" y="30" width="10" height="10" fill="rgb(250,245,255)"/><rect x="30" y="30" width="10" height="10" fill="rgb(250,245,255)"/><rect x="40" y="30" width="10" height="10" fill="rgb(250,245,255)"/><rect x="50" y="30" width="10" height="10" fill="rgb(250,245,255)"/><rect x="60" y="30" width="10" height="10" fill="rgb(250,245,255)"/><rect x="70" y="30" width="10" height="10" fill="rgb(250,245,255)"/><rect x="80" y="30" width="10" height="10" fill="rgb(250,245,255)"/><rect x="90" y="30" width="10" height="10" fill="rgb(255,180,200)"/><rect x="10" y="40" width="10" height="10" fill="rgb(255,180,200)"/><rect x="20" y="40" width="10" height="10" fill="rgb(250,245,255)"/><rect x="30" y="40" width="10" height="10" fill="rgb(250,245,255)"/><rect x="40" y="40" width="10" height="10" fill="rgb(250,245,255)"/><rect x="50" y="40" width="10" height="10" fill="rgb(235,225,245)"/><rect x="60" y="40" width="10" height="10" fill="rgb(250,245,255)"/><rect x="70" y="40" width="10" height="10" fill="rgb(250,245,255)"/><rect x="80" y="40" width="10" height="10" fill="rgb(250,245,255)"/><rect x="90" y="40" width="10" height="10" fill="rgb(255,180,200)"/><rect x="10" y="50" width="10" height="10" fill="rgb(255,180,200)"/><rect x="20" y="50" width="10" height="10" fill="rgb(250,245,255)"/><rect x="30" y="50" width="10" height="10" fill="rgb(250,245,255)"/><rect x="40" y="50" width="10" height="10" fill="rgb(40,40,60)"/><rect x="50" y="50" width="10" height="10" fill="rgb(235,225,245)"/><rect x="60" y="50" width="10" height="10" fill="rgb(40,40,60)"/><rect x="70" y="50" width="10" height="10" fill="rgb(250,245,255)"/><rect x="80" y="50" width="10" height="10" fill="rgb(250,245,255)"/><rect x="90" y="50" width="10" height="10" fill="rgb(255,180,200)"/><rect x="0" y="60" width="10" height="10" fill="rgb(250,245,255)"/><rect x="10" y="60" width="10" height="10" fill="rgb(255,140,160)"/><rect x="20" y="60" width="10" height="10" fill="rgb(255,180,200)"/><rect x="30" y="60" width="10" height="10" fill="rgb(235,225,245)"/><rect x="40" y="60" width="10" height="10" fill="rgb(235,225,245)"/><rect x="50" y="60" width="10" height="10" fill="rgb(235,225,245)"/><rect x="60" y="60" width="10" height="10" fill="rgb(235,225,245)"/><rect x="70" y="60" width="10" height="10" fill="rgb(235,225,245)"/><rect x="80" y="60" width="10" height="10" fill="rgb(255,180,200)"/><rect x="90" y="60" width="10" height="10" fill="rgb(255,140,160)"/><rect x="100" y="60" width="10" height="10" fill="rgb(250,245,255)"/><rect x="20" y="70" width="10" height="10" fill="rgb(255,180,200)"/><rect x="30" y="70" width="10" height="10" fill="rgb(235,225,245)"/><rect x="40" y="70" width="10" height="10" fill="rgb(235,225,245)"/><rect x="50" y="70" width="10" height="10" fill="rgb(240,150,175)"/><rect x="60" y="70" width="10" height="10" fill="rgb(235,225,245)"/><rect x="70" y="70" width="10" height="10" fill="rgb(235,225,245)"/><rect x="80" y="70" width="10" height="10" fill="rgb(255,180,200)"/><rect x="20" y="80" width="10" height="10" fill="rgb(255,180,200)"/><rect x="30" y="80" width="10" height="10" fill="rgb(255,180,200)"/><rect x="40" y="80" width="10" height="10" fill="rgb(255,180,200)"/><rect x="50" y="80" width="10" height="10" fill="rgb(255,180,200)"/><rect x="60" y="80" width="10" height="10" fill="rgb(255,180,200)"/><rect x="70" y="80" width="10" height="10" fill="rgb(255,180,200)"/><rect x="80" y="80" width="10" height="10" fill="rgb(255,180,200)"/><rect x="30" y="90" width="10" height="10" fill="rgb(255,180,200)"/><rect x="40" y="90" width="10" height="10" fill="rgb(255,180,200)"/><rect x="50" y="90" width="10" height="10" fill="rgb(255,180,200)"/><rect x="60" y="90" width="10" height="10" fill="rgb(255,180,200)"/><rect x="70" y="90" width="10" height="10" fill="rgb(255,180,200)"/><rect x="40" y="100" width="10" height="10" fill="rgb(240,150,175)"/><rect x="60" y="100" width="10" height="10" fill="rgb(240,150,175)"/><rect x="80" y="100" width="10" height="10" fill="rgb(240,150,175)"/><rect x="90" y="100" width="10" height="10" fill="rgb(255,180,200)"/></g><text x="300" y="84" text-anchor="middle" fill="#8b949e" font-family="monospace" font-size="18">→</text><text x="375" y="160" text-anchor="middle" fill="#c9d1d9" font-family="monospace" font-size="12" font-weight="bold">Nimbus</text><text x="375" y="175" text-anchor="middle" fill="#8b949e" font-family="monospace" font-size="10">Lv.15</text><g transform="translate(320,20)"><rect x="40" y="0" width="10" height="10" fill="rgb(150,240,200)"/><rect x="50" y="0" width="10" height="10" fill="rgb(250,245,255)"/><rect x="60" y="0" width="10" height="10" fill="rgb(150,240,200)"/><rect x="10" y="10" width="10" height="10" fill="rgb(255,180,200)"/><rect x="20" y="10" width="10" height="10" fill="rgb(250,245,255)"/><rect x="30" y="10" width="10" height="10" fill="rgb(255,180,200)"/><rect x="40" y="10" width="10" height="10" fill="rgb(250,245,255)"/><rect x="50" y="10" width="10" height="10" fill="rgb(250,245,255)"/><rect x="60" y="10" width="10" height="10" fill="rgb(250,245,255)"/><rect x="70" y="10" width="10" height="10" fill="rgb(255,180,200)"/><rect x="80" y="10" width="10" height="10" fill="rgb(250,245,255)"/><rect x="90" y="10" width="10" height="10" fill="rgb(255,180,200)"/><rect x="0" y="20" width="10" height="10" fill="rgb(250,245,255)"/><rect x="10" y="20" width="10" height="10" fill="rgb(255,180,200)"/><rect x="20" y="20" width="10" height="10" fill="rgb(250,245,255)"/><rect x="30" y="20" width="10" height="10" fill="rgb(250,245,255)"/><rect x="40" y="20" width="10" height="10" fill="rgb(250,245,255)"/><rect x="50" y="20" width="10" height="10" fill="rgb(250,245,255)"/><rect x="60" y="20" width="10" height="10" fill="rgb(250,245,255)"/><rect x="70" y="20" width="10" height="10" fill="rgb(250,245,255)"/><rect x="80" y="20" width="10" height="10" fill="rgb(250,245,255)"/><rect x="90" y="20" width="10" height="10" fill="rgb(255,180,200)"/><rect x="100" y="20" width="10" height="10" fill="rgb(250,245,255)"/><rect x="10" y="30" width="10" height="10" fill="rgb(255,180,200)"/><rect x="20" y="30" width="10" height="10" fill="rgb(250,245,255)"/><rect x="30" y="30" width="10" height="10" fill="rgb(250,245,255)"/><rect x="40" y="30" width="10" height="10" fill="rgb(250,245,255)"/><rect x="50" y="30" width="10" height="10" fill="rgb(250,245,255)"/><rect x="60" y="30" width="10" height="10" fill="rgb(250,245,255)"/><rect x="70" y="30" width="10" height="10" fill="rgb(250,245,255)"/><rect x="80" y="30" width="10" height="10" fill="rgb(250,245,255)"/><rect x="90" y="30" width="10" height="10" fill="rgb(255,180,200)"/><rect x="10" y="40" width="10" height="10" fill="rgb(255,180,200)"/><rect x="20" y="40" width="10" height="10" fill="rgb(150,240,200)"/><rect x="30" y="40" width="10" height="10" fill="rgb(250,245,255)"/><rect x="40" y="40" width="10" height="10" fill="rgb(250,245,255)"/><rect x="50" y="40" width="10" height="10" fill="rgb(235,225,245)"/><rect x="60" y="40" width="10" height="10" fill="rgb(250,245,255)"/><rect x="70" y="40" width="10" height="10" fill="rgb(250,245,255)"/><rect x="80" y="40" width="10" height="10" fill="rgb(150,240,200)"/><rect x="90" y="40" width="10" height="10" fill="rgb(255,180,200)"/><rect x="10" y="50" width="10" height="10" fill="rgb(255,180,200)"/><rect x="20" y="50" width="10" height="10" fill="rgb(250,245,255)"/><rect x="30" y="50" width="10" height="10" fill="rgb(250,245,255)"/><rect x="40" y="50" width="10" height="10" fill="rgb(40,40,60)"/><rect x="50" y="50" width="10" height="10" fill="rgb(235,225,245)"/><rect x="60" y="50" width="10" height="10" fill="rgb(40,40,60)"/><rect x="70" y="50" width="10" height="10" fill="rgb(250,245,255)"/><rect x="80" y="50" width="10" height="10" fill="rgb(250,245,255)"/><rect x="90" y="50" width="10" height="10" fill="rgb(255,180,200)"/><rect x="0" y="60" width="10" height="10" fill="rgb(150,240,200)"/><rect x="10" y="60" width="10" height="10" fill="rgb(255,140,160)"/><rect x="20" y="60" width="10" height="10" fill="rgb(255,180,200)"/><rect x="30" y="60" width="10" height="10" fill="rgb(235,225,245)"/><rect x="40" y="60" width="10" height="10" fill="rgb(235,225,245)"/><rect x="50" y="60" width="10" height="10" fill="rgb(235,225,245)"/><rect x="60" y="60" width="10" height="10" fill="rgb(235,225,245)"/><rect x="70" y="60" width="10" height="10" fill="rgb(235,225,245)"/><rect x="80" y="60" width="10" height="10" fill="rgb(255,180,200)"/><rect x="90" y="60" width="10" height="10" fill="rgb(255,140,160)"/><rect x="100" y="60" width="10" height="10" fill="rgb(150,240,200)"/><rect x="10" y="70" width="10" height="10" fill="rgb(255,180,200)"/><rect x="20" y="70" width="10" height="10" fill="rgb(255,180,200)"/><rect x="30" y="70" width="10" height="10" fill="rgb(235,225,245)"/><rect x="40" y="70" width="10" height="10" fill="rgb(235,225,245)"/><rect x="50" y="70" width="10" height="10" fill="rgb(240,150,175)"/><rect x="60" y="70" width="10" height="10" fill="rgb(235,225,245)"/><rect x="70" y="70" width="10" height="10" fill="rgb(235,225,245)"/><rect x="80" y="70" width="10" height="10" fill="rgb(255,180,200)"/><rect x="90" y="70" width="10" height="10" fill="rgb(255,180,200)"/><rect x="20" y="80" width="10" height="10" fill="rgb(240,150,175)"/><rect x="30" y="80" width="10" height="10" fill="rgb(255,180,200)"/><rect x="40" y="80" width="10" height="10" fill="rgb(255,180,200)"/><rect x="50" y="80" width="10" height="10" fill="rgb(255,180,200)"/><rect x="60" y="80" width="10" height="10" fill="rgb(255,180,200)"/><rect x="70" y="80" width="10" height="10" fill="rgb(255,180,200)"/><rect x="80" y="80" width="10" height="10" fill="rgb(240,150,175)"/><rect x="30" y="90" width="10" height="10" fill="rgb(255,180,200)"/><rect x="40" y="90" width="10" height="10" fill="rgb(255,180,200)"/><rect x="50" y="90" width="10" height="10" fill="rgb(255,180,200)"/><rect x="60" y="90" width="10" height="10" fill="rgb(255,180,200)"/><rect x="70" y="90" width="10" height="10" fill="rgb(255,180,200)"/><rect x="20" y="100" width="10" height="10" fill="rgb(255,220,50)"/><rect x="30" y="100" width="10" height="10" fill="rgb(240,150,175)"/><rect x="70" y="100" width="10" height="10" fill="rgb(240,150,175)"/><rect x="80" y="100" width="10" height="10" fill="rgb(255,220,50)"/></g>
</svg>