<svg xmlns="http://www.w3.org/2000/svg" width="536" height="154" viewBox="0 0 536 154">
<rect width="100%" height="100%" fill="#0d1117" rx="8"/>
<text x="60" y="128" text-anchor="middle" fill="#8b949e" font-family="monospace" font-size="10">normal</text><g transform="translate(16,16)"><rect x="16" y="0" width="8" height="8" fill="rgb(255,220,50)"/><rect x="64" y="0" width="8" height="8" fill="rgb(255,220,50)"/><rect x="8" y="8" width="8" height="8" fill="rgb(255,140,0)"/><rect x="16" y="8" width="8" height="8" fill="rgb(255,140,0)"/><rect x="64" y="8" width="8" height="8" fill="rgb(255,140,0)"/><rect x="72" y="8" width="8" height="8" fill="rgb(255,140,0)"/><rect x="8" y="16" width="8" height="8" fill="rgb(255,140,0)"/><rect x="16" y="16" width="8" height="8" fill="rgb(255,140,0)"/><rect x="24" y="16" width="8" height="8" fill="rgb(255,140,0)"/><rect x="32" y="16" width="8" height="8" fill="rgb(255,140,0)"/><rect x="40" y="16" width="8" height="8" fill="rgb(255,140,0)"/><rect x="48" y="16" width="8" height="8" fill="rgb(255,140,0)"/><rect x="56" y="16" width="8" height="8" fill="rgb(255,140,0)"/><rect x="64" y="16" width="8" height="8" fill="rgb(255,140,0)"/><rect x="72" y="16" width="8" height="8" fill="rgb(255,140,0)"/><rect x="16" y="24" width="8" height="8" fill="rgb(255,140,0)"/><rect x="24" y="24" width="8" height="8" fill="rgb(230,110,0)"/><rect x="32" y="24" width="8" height="8" fill="rgb(230,110,0)"/><rect x="40" y="24" width="8" height="8" fill="rgb(230,110,0)"/><rect x="48" y="24" width="8" height="8" fill="rgb(230,110,0)"/><rect x="56" y="24" width="8" height="8" fill="rgb(230,110,0)"/><rect x="64" y="24" width="8" height="8" fill="rgb(255,140,0)"/><rect x="16" y="32" width="8" height="8" fill="rgb(255,140,0)"/><rect x="24" y="32" width="8" height="8" fill="rgb(255,255,255)"/><rect x="32" y="32" width="8" height="8" fill="rgb(255,255,255)"/><rect x="40" y="32" width="8" height="8" fill="rgb(230,110,0)"/><rect x="48" y="32" width="8" height="8" fill="rgb(255,255,255)"/><rect x="56" y="32" width="8" height="8" fill="rgb(255,255,255)"/><rect x="64" y="32" width="8" height="8" fill="rgb(255,140,0)"/><rect x="16" y="40" width="8" height="8" fill="rgb(255,140,0)"/><rect x="24" y="40" width="8" height="8" fill="rgb(255,255,255)"/><rect x="32" y="40" width="8" height="8" fill="rgb(20,20,20)"/><rect x="40" y="40" width="8" height="8" fill="rgb(230,110,0)"/><rect x="48" y="40" width="8" height="8" fill="rgb(20,20,20)"/><rect x="56" y="40" width="8" height="8" fill="rgb(255,255,255)"/><rect x="64" y="40" width="8" height="8" fill="rgb(255,140,0)"/><rect x="16" y="48" width="8" height="8" fill="rgb(255,140,0)"/><rect x="24" y="48" width="8" height="8" fill="rgb(230,110,0)"/><rect x="32" y="48" width="8" height="8" fill="rgb(230,110,0)"/><rect x="40" y="48" width="8" height="8" fill="rgb(230,110,0)"/><rect x="48" y="48" width="8" height="8" fill="rgb(230,110,0)"/><rect x="56" y="48" width="8" height="8" fill="rgb(230,110,0)"/><rect x="64" y="48" width="8" height="8" fill="rgb(255,140,0)"/><rect x="16" y="56" width="8" height="8" fill="rgb(255,140,0)"/><rect x="24" y="56" width="8" height="8" fill="rgb(230,110,0)"/><rect x="32" y="56" width="8" height="8" fill="rgb(230,110,0)"/><rect x="40" y="56" width="8" height="8" fill="rgb(60,30,15)"/><rect x="48" y="56" width="8" height="8" fill="rgb(230,110,0)"/><rect x="56" y="56" width="8" height="8" fill="rgb(230,110,0)"/><rect x="64" y="56" width="8" height="8" fill="rgb(255,140,0)"/><rect x="16" y="64" width="8" height="8" fill="rgb(255,140,0)"/><rect x="24" y="64" width="8" height="8" fill="rgb(255,140,0)"/><rect x="32" y="64" width="8" height="8" fill="rgb(255,140,0)"/><rect x="40" y="64" width="8" height="8" fill="rgb(230,110,0)"/><rect x="48" y="64" width="8" height="8" fill="rgb(255,140,0)"/><rect x="56" y="64" width="8" height="8" fill="rgb(255,140,0)"/><rect x="64" y="64" width="8" height="8" fill="rgb(255,140,0)"/><rect x="16" y="72" width="8" height="8" fill="rgb(255,140,0)"/><rect x="24" y="72" width="8" height="8" fill="rgb(255,140,0)"/><rect x="32" y="72" width="8" height="8" fill="rgb(255,140,0)"/><rect x="40" y="72" width="8" height="8" fill="rgb(255,140,0)"/><rect x="48" y="72" width="8" height="8" fill="rgb(255,140,0)"/><rect x="56" y="72" width="8" height="8" fill="rgb(255,140,0)"/><rect x="64" y="72" width="8" height="8" fill="rgb(255,140,0)"/><rect x="16" y="80" width="8" height="8" fill="rgb(220,60,10)"/><rect x="32" y="80" width="8" height="8" fill="rgb(255,140,0)"/><rect x="48" y="80" width="8" height="8" fill="rgb(255,140,0)"/><rect x="64" y="80" width="8" height="8" fill="rgb(255,220,50)"/><rect x="72" y="80" width="8" height="8" fill="rgb(255,140,0)"/><rect x="56" y="88" width="8" height="8" fill="rgb(255,220,50)"/><rect x="64" y="88" width="8" height="8" fill="rgb(255,140,0)"/><rect x="72" y="88" width="8" height="8" fill="rgb(255,220,50)"/></g><text x="164" y="128" text-anchor="middle" fill="#8b949e" font-family="monospace" font-size="10">blink</text><g transform="translate(120,16)"><rect x="16" y="0" width="8" height="8" fill="rgb(255,220,50)"/><rect x="64" y="0" width="8" height="8" fill="rgb(255,220,50)"/><rect x="8" y="8" width="8" height="8" fill="rgb(255,140,0)"/><rect x="16" y="8" width="8" height="8" fill="rgb(255,140,0)"/><rect x="64" y="8" width="8" height="8" fill="rgb(255,140,0)"/><rect x="72" y="8" width="8" height="8" fill="rgb(255,140,0)"/><rect x="8" y="16" width="8" height="8" fill="rgb(255,140,0)"/><rect x="16" y="16" width="8" height="8" fill="rgb(255,140,0)"/><rect x="24" y="16" width="8" height="8" fill="rgb(255,140,0)"/><rect x="32" y="16" width="8" height="8" fill="rgb(255,140,0)"/><rect x="40" y="16" width="8" height="8" fill="rgb(255,140,0)"/><rect x="48" y="16" width="8" height="8" fill="rgb(255,140,0)"/><rect x="56" y="16" width="8" height="8" fill="rgb(255,140,0)"/><rect x="64" y="16" width="8" height="8" fill="rgb(255,140,0)"/><rect x="72" y="16" width="8" height="8" fill="rgb(255,140,0)"/><rect x="16" y="24" width="8" height="8" fill="rgb(255,140,0)"/><rect x="24" y="24" width="8" height="8" fill="rgb(230,110,0)"/><rect x="32" y="24" width="8" height="8" fill="rgb(230,110,0)"/><rect x="40" y="24" width="8" height="8" fill="rgb(230,110,0)"/><rect x="48" y="24" width="8" height="8" fill="rgb(230,110,0)"/><rect x="56" y="24" width="8" height="8" fill="rgb(230,110,0)"/><rect x="64" y="24" width="8" height="8" fill="rgb(255,140,0)"/><rect x="16" y="32" width="8" height="8" fill="rgb(255,140,0)"/><rect x="24" y="32" width="8" height="8" fill="rgb(255,140,0)"/><rect x="32" y="32" width="8" height="8" fill="rgb(255,140,0)"/><rect x="40" y="32" width="8" height="8" fill="rgb(230,110,0)"/><rect x="48" y="32" width="8" height="8" fill="rgb(255,140,0)"/><rect x="56" y="32" width="8" height="8" fill="rgb(255,140,0)"/><rect x="64" y="32" width="8" height="8" fill="rgb(255,140,0)"/><rect x="16" y="40" width="8" height="8" fill="rgb(255,140,0)"/><rect x="24" y="40" width="8" height="8" fill="rgb(225,110,0)"/><rect x="32" y="40" width="8" height="8" fill="rgb(225,110,0)"/><rect x="40" y="40" width="8" height="8" fill="rgb(230,110,0)"/><rect x="48" y="40" width="8" height="8" fill="rgb(225,110,0)"/><rect x="56" y="40" width="8" height="8" fill="rgb(225,110,0)"/><rect x="64" y="40" width="8" height="8" fill="rgb(255,140,0)"/><rect x="16" y="48" width="8" height="8" fill="rgb(255,140,0)"/><rect x="24" y="48" width="8" height="8" fill="rgb(230,110,0)"/><rect x="32" y="48" width="8" height="8" fill="rgb(230,110,0)"/><rect x="40" y="48" width="8" height="8" fill="rgb(230,110,0)"/><rect x="48" y="48" width="8" height="8" fill="rgb(230,110,0)"/><rect x="56" y="48" width="8" height="8" fill="rgb(230,110,0)"/><rect x="64" y="48" width="8" height="8" fill="rgb(255,140,0)"/><rect x="16" y="56" width="8" height="8" fill="rgb(255,140,0)"/><rect x="24" y="56" width="8" height="8" fill="rgb(230,110,0)"/><rect x="32" y="56" width="8" height="8" fill="rgb(230,110,0)"/><rect x="40" y="56" width="8" height="8" fill="rgb(60,30,15)"/><rect x="48" y="56" width="8" height="8" fill="rgb(230,110,0)"/><rect x="56" y="56" width="8" height="8" fill="rgb(230,110,0)"/><rect x="64" y="56" width="8" height="8" fill="rgb(255,140,0)"/><rect x="16" y="64" width="8" height="8" fill="rgb(255,140,0)"/><rect x="24" y="64" width="8" height="8" fill="rgb(255,140,0)"/><rect x="32" y="64" width="8" height="8" fill="rgb(255,140,0)"/><rect x="40" y="64" width="8" height="8" fill="rgb(230,110,0)"/><rect x="48" y="64" width="8" height="8" fill="rgb(255,140,0)"/><rect x="56" y="64" width="8" height="8" fill="rgb(255,140,0)"/><rect x="64" y="64" width="8" height="8" fill="rgb(255,140,0)"/><rect x="16" y="72" width="8" height="8" fill="rgb(255,140,0)"/><rect x="24" y="72" width="8" height="8" fill="rgb(255,140,0)"/><rect x="32" y="72" width="8" height="8" fill="rgb(255,140,0)"/><rect x="40" y="72" width="8" height="8" fill="rgb(255,140,0)"/><rect x="48" y="72" width="8" height="8" fill="rgb(255,140,0)"/><rect x="56" y="72" width="8" height="8" fill="rgb(255,140,0)"/><rect x="64" y="72" width="8" height="8" fill="rgb(255,140,0)"/><rect x="16" y="80" width="8" height="8" fill="rgb(220,60,10)"/><rect x="32" y="80" width="8" height="8" fill="rgb(255,140,0)"/><rect x="48" y="80" width="8" height="8" fill="rgb(255,140,0)"/><rect x="64" y="80" width="8" height="8" fill="rgb(255,220,50)"/><rect x="72" y="80" width="8" height="8" fill="rgb(255,140,0)"/><rect x="56" y="88" width="8" height="8" fill="rgb(255,220,50)"/><rect x="64" y="88" width="8" height="8" fill="rgb(255,140,0)"/><rect x="72" y="88" width="8" height="8" fill="rgb(255,220,50)"/></g><text x="268" y="128" text-anchor="middle" fill="#8b949e" font-family="monospace" font-size="10">happy</text><g transform="translate(224,16)"><rect x="16" y="0" width="8" height="8" fill="rgb(255,220,50)"/><rect x="64" y="0" width="8" height="8" fill="rgb(255,220,50)"/><rect x="8" y="8" width="8" height="8" fill="rgb(255,140,0)"/><rect x="16" y="8" width="8" height="8" fill="rgb(255,140,0)"/><rect x="64" y="8" width="8" height="8" fill="rgb(255,140,0)"/><rect x="72" y="8" width="8" height="8" fill="rgb(255,140,0)"/><rect x="8" y="16" width="8" height="8" fill="rgb(255,140,0)"/><rect x="16" y="16" width="8" height="8" fill="rgb(255,140,0)"/><rect x="24" y="16" width="8" height="8" fill="rgb(255,140,0)"/><rect x="32" y="16" width="8" height="8" fill="rgb(255,140,0)"/><rect x="40" y="16" width="8" height="8" fill="rgb(255,140,0)"/><rect x="48" y="16" width="8" height="8" fill="rgb(255,140,0)"/><rect x="56" y="16" width="8" height="8" fill="rgb(255,140,0)"/><rect x="64" y="16" width="8" height="8" fill="rgb(255,140,0)"/><rect x="72" y="16" width="8" height="8" fill="rgb(255,140,0)"/><rect x="16" y="24" width="8" height="8" fill="rgb(255,140,0)"/><rect x="24" y="24" width="8" height="8" fill="rgb(230,110,0)"/><rect x="32" y="24" width="8" height="8" fill="rgb(230,110,0)"/><rect x="40" y="24" width="8" height="8" fill="rgb(230,110,0)"/><rect x="48" y="24" width="8" height="8" fill="rgb(230,110,0)"/><rect x="56" y="24" width="8" height="8" fill="rgb(230,110,0)"/><rect x="64" y="24" width="8" height="8" fill="rgb(255,140,0)"/><rect x="16" y="32" width="8" height="8" fill="rgb(255,140,0)"/><rect x="24" y="32" width="8" height="8" fill="rgb(255,255,255)"/><rect x="32" y="32" width="8" height="8" fill="rgb(20,20,20)"/><rect x="40" y="32" width="8" height="8" fill="rgb(230,110,0)"/><rect x="48" y="32" width="8" height="8" fill="rgb(20,20,20)"/><rect x="56" y="32" width="8" height="8" fill="rgb(255,255,255)"/><rect x="64" y="32" width="8" height="8" fill="rgb(255,140,0)"/><rect x="16" y="40" width="8" height="8" fill="rgb(255,140,0)"/><rect x="24" y="40" width="8" height="8" fill="rgb(230,110,0)"/><rect x="32" y="40" width="8" height="8" fill="rgb(230,110,0)"/><rect x="40" y="40" width="8" height="8" fill="rgb(230,110,0)"/><rect x="48" y="40" width="8" height="8" fill="rgb(230,110,0)"/><rect x="56" y="40" width="8" height="8" fill="rgb(230,110,0)"/><rect x="64" y="40" width="8" height="8" fill="rgb(255,140,0)"/><rect x="16" y="48" width="8" height="8" fill="rgb(255,140,0)"/><rect x="24" y="48" width="8" height="8" fill="rgb(230,110,0)"/><rect x="32" y="48" width="8" height="8" fill="rgb(230,110,0)"/><rect x="40" y="48" width="8" height="8" fill="rgb(230,110,0)"/><rect x="48" y="48" width="8" height="8" fill="rgb(230,110,0)"/><rect x="56" y="48" width="8" height="8" fill="rgb(230,110,0)"/><rect x="64" y="48" width="8" height="8" fill="rgb(255,140,0)"/><rect x="16" y="56" width="8" height="8" fill="rgb(255,140,0)"/><rect x="24" y="56" width="8" height="8" fill="rgb(60,30,15)"/><rect x="32" y="56" width="8" height="8" fill="rgb(230,110,0)"/><rect x="40" y="56" width="8" height="8" fill="rgb(230,110,0)"/><rect x="48" y="56" width="8" height="8" fill="rgb(230,110,0)"/><rect x="56" y="56" width="8" height="8" fill="rgb(60,30,15)"/><rect x="64" y="56" width="8" height="8" fill="rgb(255,140,0)"/><rect x="16" y="64" width="8" height="8" fill="rgb(255,140,0)"/><rect x="24" y="64" width="8" height="8" fill="rgb(230,110,0)"/><rect x="32" y="64" width="8" height="8" fill="rgb(60,30,15)"/><rect x="40" y="64" width="8" height="8" fill="rgb(60,30,15)"/><rect x="48" y="64" width="8" height="8" fill="rgb(60,30,15)"/><rect x="56" y="64" width="8" height="8" fill="rgb(230,110,0)"/><rect x="64" y="64" width="8" height="8" fill="rgb(255,140,0)"/><rect x="16" y="72" width="8" height="8" fill="rgb(255,140,0)"/><rect x="24" y="72" width="8" height="8" fill="rgb(255,140,0)"/><rect x="32" y="72" width="8" height="8" fill="rgb(255,140,0)"/><rect x="40" y="72" width="8" height="8" fill="rgb(255,140,0)"/><rect x="48" y="72" width="8" height="8" fill="rgb(255,140,0)"/><rect x="56" y="72" width="8" height="8" fill="rgb(255,140,0)"/><rect x="64" y="72" width="8" height="8" fill="rgb(255,140,0)"/><rect x="16" y="80" width="8" height="8" fill="rgb(220,60,10)"/><rect x="32" y="80" width="8" height="8" fill="rgb(255,140,0)"/><rect x="48" y="80" width="8" height="8" fill="rgb(255,140,0)"/><rect x="64" y="80" width="8" height="8" fill="rgb(255,220,50)"/><rect x="72" y="80" width="8" height="8" fill="rgb(255,140,0)"/><rect x="56" y="88" width="8" height="8" fill="rgb(255,220,50)"/><rect x="64" y="88" width="8" height="8" fill="rgb(255,140,0)"/><rect x="72" y="88" width="8" height="8" fill="rgb(255,220,50)"/></g><text x="372" y="128" text-anchor="middle" fill="#8b949e" font-family="monospace" font-size="10">stress</text><g transform="translate(328,16)"><rect x="16" y="0" width="8" height="8" fill="rgb(255,220,50)"/><rect x="64" y="0" width="8" height="8" fill="rgb(255,220,50)"/><rect x="8" y="8" width="8" height="8" fill="rgb(255,140,0)"/><rect x="16" y="8" width="8" height="8" fill="rgb(255,140,0)"/><rect x="64" y="8" width="8" height="8" fill="rgb(255,140,0)"/><rect x="72" y="8" width="8" height="8" fill="rgb(255,140,0)"/><rect x="8" y="16" width="8" height="8" fill="rgb(255,140,0)"/><rect x="16" y="16" width="8" height="8" fill="rgb(255,140,0)"/><rect x="24" y="16" width="8" height="8" fill="rgb(255,140,0)"/><rect x="32" y="16" width="8" height="8" fill="rgb(255,140,0)"/><rect x="40" y="16" width="8" height="8" fill="rgb(255,140,0)"/><rect x="48" y="16" width="8" height="8" fill="rgb(255,140,0)"/><rect x="56" y="16" width="8" height="8" fill="rgb(255,140,0)"/><rect x="64" y="16" width="8" height="8" fill="rgb(255,140,0)"/><rect x="72" y="16" width="8" height="8" fill="rgb(255,140,0)"/><rect x="16" y="24" width="8" height="8" fill="rgb(255,140,0)"/><rect x="24" y="24" width="8" height="8" fill="rgb(230,110,0)"/><rect x="32" y="24" width="8" height="8" fill="rgb(230,110,0)"/><rect x="40" y="24" width="8" height="8" fill="rgb(230,110,0)"/><rect x="48" y="24" width="8" height="8" fill="rgb(230,110,0)"/><rect x="56" y="24" width="8" height="8" fill="rgb(230,110,0)"/><rect x="64" y="24" width="8" height="8" fill="rgb(255,140,0)"/><rect x="72" y="24" width="8" height="8" fill="rgb(100,200,255)"/><rect x="16" y="32" width="8" height="8" fill="rgb(255,140,0)"/><rect x="24" y="32" width="8" height="8" fill="rgb(255,255,255)"/><rect x="32" y="32" width="8" height="8" fill="rgb(255,255,255)"/><rect x="40" y="32" width="8" height="8" fill="rgb(230,110,0)"/><rect x="48" y="32" width="8" height="8" fill="rgb(255,255,255)"/><rect x="56" y="32" width="8" height="8" fill="rgb(255,255,255)"/><rect x="64" y="32" width="8" height="8" fill="rgb(255,140,0)"/><rect x="16" y="40" width="8" height="8" fill="rgb(255,140,0)"/><rect x="24" y="40" width="8" height="8" fill="rgb(20,20,20)"/><rect x="32" y="40" width="8" height="8" fill="rgb(255,255,255)"/><rect x="40" y="40" width="8" height="8" fill="rgb(230,110,0)"/><rect x="48" y="40" width="8" height="8" fill="rgb(255,255,255)"/><rect x="56" y="40" width="8" height="8" fill="rgb(20,20,20)"/><rect x="64" y="40" width="8" height="8" fill="rgb(255,140,0)"/><rect x="16" y="48" width="8" height="8" fill="rgb(255,140,0)"/><rect x="24" y="48" width="8" height="8" fill="rgb(230,110,0)"/><rect x="32" y="48" width="8" height="8" fill="rgb(230,110,0)"/><rect x="40" y="48" width="8" height="8" fill="rgb(230,110,0)"/><rect x="48" y="48" width="8" height="8" fill="rgb(230,110,0)"/><rect x="56" y="48" width="8" height="8" fill="rgb(230,110,0)"/><rect x="64" y="48" width="8" height="8" fill="rgb(255,140,0)"/><rect x="16" y="56" width="8" height="8" fill="rgb(255,140,0)"/><rect x="24" y="56" width="8" height="8" fill="rgb(230,110,0)"/><rect x="32" y="56" width="8" height="8" fill="rgb(60,30,15)"/><rect x="40" y="56" width="8" height="8" fill="rgb(60,30,15)"/><rect x="48" y="56" width="8" height="8" fill="rgb(60,30,15)"/><rect x="56" y="56" width="8" height="8" fill="rgb(230,110,0)"/><rect x="64" y="56" width="8" height="8" fill="rgb(255,140,0)"/><rect x="16" y="64" width="8" height="8" fill="rgb(255,140,0)"/><rect x="24" y="64" width="8" height="8" fill="rgb(255,140,0)"/><rect x="32" y="64" width="8" height="8" fill="rgb(255,140,0)"/><rect x="40" y="64" width="8" height="8" fill="rgb(255,140,0)"/><rect x="48" y="64" width="8" height="8" fill="rgb(255,140,0)"/><rect x="56" y="64" width="8" height="8" fill="rgb(255,140,0)"/><rect x="64" y="64" width="8" height="8" fill="rgb(255,140,0)"/><rect x="16" y="72" width="8" height="8" fill="rgb(255,140,0)"/><rect x="24" y="72" width="8" height="8" fill="rgb(255,140,0)"/><rect x="32" y="72" width="8" height="8" fill="rgb(255,140,0)"/><rect x="40" y="72" width="8" height="8" fill="rgb(255,140,0)"/><rect x="48" y="72" width="8" height="8" fill="rgb(255,140,0)"/><rect x="56" y="72" width="8" height="8" fill="rgb(255,140,0)"/><rect x="64" y="72" width="8" height="8" fill="rgb(255,140,0)"/><rect x="16" y="80" width="8" height="8" fill="rgb(220,60,10)"/><rect x="32" y="80" width="8" height="8" fill="rgb(255,140,0)"/><rect x="48" y="80" width="8" height="8" fill="rgb(255,140,0)"/><rect x="64" y="80" width="8" height="8" fill="rgb(255,220,50)"/><rect x="72" y="80" width="8" height="8" fill="rgb(255,140,0)"/><rect x="56" y="88" width="8" height="8" fill="rgb(255,220,50)"/><rect x="64" y="88" width="8" height="8" fill="rgb(255,140,0)"/><rect x="72" y="88" width="8" height="8" fill="rgb(255,220,50)"/></g><text x="476" y="128" text-anchor="middle" fill="#8b949e" font-family="monospace" font-size="10">panic</text><g transform="translate(432,16)"><rect x="16" y="0" width="8" height="8" fill="rgb(255,220,50)"/><rect x="64" y="0" width="8" height="8" fill="rgb(255,220,50)"/><rect x="8" y="8" width="8" height="8" fill="rgb(255,140,0)"/><rect x="16" y="8" width="8" height="8" fill="rgb(255,140,0)"/><rect x="64" y="8" width="8" height="8" fill="rgb(255,140,0)"/><rect x="72" y="8" width="8" height="8" fill="rgb(255,140,0)"/><rect x="8" y="16" width="8" height="8" fill="rgb(255,140,0)"/><rect x="16" y="16" width="8" height="8" fill="rgb(255,140,0)"/><rect x="24" y="16" width="8" height="8" fill="rgb(255,140,0)"/><rect x="32" y="16" width="8" height="8" fill="rgb(255,140,0)"/><rect x="40" y="16" width="8" height="8" fill="rgb(255,140,0)"/><rect x="48" y="16" width="8" height="8" fill="rgb(255,140,0)"/><rect x="56" y="16" width="8" height="8" fill="rgb(255,140,0)"/><rect x="64" y="16" width="8" height="8" fill="rgb(255,140,0)"/><rect x="72" y="16" width="8" height="8" fill="rgb(255,140,0)"/><rect x="16" y="24" width="8" height="8" fill="rgb(255,140,0)"/><rect x="24" y="24" width="8" height="8" fill="rgb(230,110,0)"/><rect x="32" y="24" width="8" height="8" fill="rgb(230,110,0)"/><rect x="40" y="24" width="8" height="8" fill="rgb(230,110,0)"/><rect x="48" y="24" width="8" height="8" fill="rgb(230,110,0)"/><rect x="56" y="24" width="8" height="8" fill="rgb(230,110,0)"/><rect x="64" y="24" width="8" height="8" fill="rgb(255,140,0)"/><rect x="16" y="32" width="8" height="8" fill="rgb(255,140,0)"/><rect x="24" y="32" width="8" height="8" fill="rgb(255,0,0)"/><rect x="32" y="32" width="8" height="8" fill="rgb(255,255,255)"/><rect x="40" y="32" width="8" height="8" fill="rgb(230,110,0)"/><rect x="48" y="32" width="8" height="8" fill="rgb(255,255,255)"/><rect x="56" y="32" width="8" height="8" fill="rgb(255,0,0)"/><rect x="64" y="32" width="8" height="8" fill="rgb(255,140,0)"/><rect x="16" y="40" width="8" height="8" fill="rgb(255,140,0)"/><rect x="24" y="40" width="8" height="8" fill="rgb(255,255,255)"/><rect x="32" y="40" width="8" height="8" fill="rgb(255,0,0)"/><rect x="40" y="40" width="8" height="8" fill="rgb(230,110,0)"/><rect x="48" y="40" width="8" height="8" fill="rgb(255,0,0)"/><rect x="56" y="40" width="8" height="8" fill="rgb(255,255,255)"/><rect x="64" y="40" width="8" height="8" fill="rgb(255,140,0)"/><rect x="16" y="48" width="8" height="8" fill="rgb(255,140,0)"/><rect x="24" y="48" width="8" height="8" fill="rgb(230,110,0)"/><rect x="32" y="48" width="8" height="8" fill="rgb(230,110,0)"/><rect x="40" y="48" width="8" height="8" fill="rgb(230,110,0)"/><rect x="48" y="48" width="8" height="8" fill="rgb(230,110,0)"/><rect x="56" y="48" width="8" height="8" fill="rgb(230,110,0)"/><rect x="64" y="48" width="8" height="8" fill="rgb(255,140,0)"/><rect x="16" y="56" width="8" height="8" fill="rgb(255,140,0)"/><rect x="24" y="56" width="8" height="8" fill="rgb(255,140,0)"/><rect x="32" y="56" width="8" height="8" fill="rgb(60,30,15)"/><rect x="40" y="56" width="8" height="8" fill="rgb(60,30,15)"/><rect x="48" y="56" width="8" height="8" fill="rgb(60,30,15)"/><rect x="56" y="56" width="8" height="8" fill="rgb(255,140,0)"/><rect x="64" y="56" width="8" height="8" fill="rgb(255,140,0)"/><rect x="16" y="64" width="8" height="8" fill="rgb(255,140,0)"/><rect x="24" y="64" width="8" height="8" fill="rgb(255,140,0)"/><rect x="32" y="64" width="8" height="8" fill="rgb(60,30,15)"/><rect x="40" y="64" width="8" height="8" fill="rgb(230,110,0)"/><rect x="48" y="64" width="8" height="8" fill="rgb(60,30,15)"/><rect x="56" y="64" width="8" height="8" fill="rgb(255,140,0)"/><rect x="64" y="64" width="8" height="8" fill="rgb(255,140,0)"/><rect x="16" y="72" width="8" height="8" fill="rgb(255,140,0)"/><rect x="24" y="72" width="8" height="8" fill="rgb(255,140,0)"/><rect x="32" y="72" width="8" height="8" fill="rgb(60,30,15)"/><rect x="40" y="72" width="8" height="8" fill="rgb(60,30,15)"/><rect x="48" y="72" width="8" height="8" fill="rgb(60,30,15)"/><rect x="56" y="72" width="8" height="8" fill="rgb(255,140,0)"/><rect x="64" y="72" width="8" height="8" fill="rgb(255,140,0)"/><rect x="16" y="80" width="8" height="8" fill="rgb(220,60,10)"/><rect x="32" y="80" width="8" height="8" fill="rgb(255,140,0)"/><rect x="48" y="80" width="8" height="8" fill="rgb(255,140,0)"/><rect x="64" y="80" width="8" height="8" fill="rgb(255,220,50)"/><rect x="72" y="80" width="8" height="8" fill="rgb(255,140,0)"/><rect x="56" y="88" width="8" height="8" fill="rgb(255,220,50)"/><rect x="64" y="88" width="8" height="8" fill="rgb(255,140,0)"/><rect x="72" y="88" width="8" height="8" fill="rgb(255,220,50)"/></g>
</svg>